<svg width="106" height="103" viewBox="0 0 106 103" fill="none" xmlns="http://www.w3.org/2000/svg">
<path d="M94.2519 24.3846C93.6801 22.5549 92.3079 21.0683 90.5926 20.1534L55.7145 3.4577C54.7996 3.00028 53.7704 2.88593 52.8556 2.88593C51.9408 2.88593 50.9116 2.88593 49.9967 3.11463L15.1186 19.9247C13.4033 20.7252 12.1454 22.2118 11.688 24.1558L3.11142 61.7784C2.76836 63.7225 3.22578 65.6665 4.36932 67.2675L28.4981 97.114C29.8704 98.4862 31.8144 99.401 33.7584 99.5154H72.1815C74.2399 99.7441 76.1839 98.8293 77.4418 97.114L101.571 67.2675C102.714 65.6665 103.172 63.7225 102.943 61.7784L94.2519 24.3846Z" fill="white" stroke="white" stroke-width="5" stroke-miterlimit="10"/>
<path d="M94.2519 24.3846C93.6801 22.5549 92.3079 21.0683 90.5926 20.1534L55.7145 3.4577C54.7996 3.00028 53.7704 2.88593 52.8556 2.88593C51.9408 2.88593 50.9116 2.88593 49.9967 3.11463L15.1186 19.9247C13.4033 20.7252 12.1454 22.2118 11.688 24.1558L3.11142 61.7784C2.76836 63.7225 3.22578 65.6665 4.36932 67.2675L28.4981 97.114C29.8704 98.4862 31.8144 99.401 33.7584 99.5154H72.1815C74.2399 99.7441 76.1839 98.8293 77.4418 97.114L101.571 67.2675C102.714 65.6665 103.172 63.7225 102.943 61.7784L94.2519 24.3846Z" fill="#326DE6"/>
<path d="M88.8772 60.2919C88.7629 60.2919 88.6485 60.2919 88.6485 60.1775C88.6485 60.0632 88.4198 60.0632 88.1911 60.0632C87.7337 59.9488 87.2763 59.9488 86.8188 59.9488C86.5901 59.9488 86.3614 59.9488 86.1327 59.8345H86.0184C84.7605 59.7201 83.3882 59.4914 82.1303 59.1483C81.7872 59.034 81.4442 58.6909 81.3298 58.3479L80.415 58.1191C80.8724 54.8029 80.6437 51.3722 79.9576 48.056C79.1571 44.7397 77.7848 41.5378 75.9552 38.6789L76.6413 37.9928V37.8784C76.6413 37.5353 76.7556 37.0779 76.9844 36.8492C78.0135 35.9344 79.0427 35.2483 80.1863 34.5621C80.415 34.4478 80.6437 34.3334 80.8724 34.2191C81.3298 33.9904 81.6729 33.7617 82.1303 33.5329C82.2447 33.4186 82.359 33.4186 82.4734 33.3042C82.5877 33.1899 82.4734 33.1899 82.4734 33.0755C83.5026 32.275 83.7313 30.9028 82.9308 29.8736C82.5877 29.4162 81.9016 29.0731 81.3298 29.0731C80.7581 29.0731 80.1863 29.3018 79.7289 29.6449L79.6145 29.7593C79.5002 29.8736 79.3858 29.988 79.2714 29.988C78.9284 30.331 78.5853 30.6741 78.3566 31.0171C78.2423 31.2459 78.0136 31.3602 77.8992 31.4746C77.0987 32.3894 76.0695 33.3042 75.0403 33.9904C74.8116 34.1047 74.5829 34.2191 74.3542 34.2191C74.2399 34.2191 74.0112 34.2191 73.8968 34.1047H73.7824L72.8676 34.6765C71.9528 33.7617 70.9236 32.8468 70.0087 31.932C65.7776 28.6157 60.5173 26.5573 55.1427 25.9856L55.0283 25.0707V25.1851C54.6853 24.9564 54.5709 24.6133 54.4565 24.2702C54.4565 23.0123 54.4565 21.7544 54.6853 20.3822V20.2678C54.6853 20.0391 54.7996 19.8104 54.7996 19.5817C54.914 19.1243 54.914 18.6669 55.0283 18.2095V17.5233C55.1427 16.3798 54.2278 15.2362 53.0843 15.1219C52.3982 15.0075 51.712 15.3506 51.1403 15.9224C50.6828 16.3798 50.4541 16.9516 50.4541 17.5233V18.0951C50.4541 18.5525 50.5685 19.0099 50.6828 19.4674C50.7972 19.6961 50.7972 19.9248 50.7972 20.1535V20.2678C51.0259 21.5257 51.0259 22.7836 51.0259 24.1559C50.9116 24.4989 50.7972 24.842 50.4541 25.0707V25.2994L50.3398 26.2143C49.0819 26.3286 47.824 26.5573 46.4517 26.786C41.0771 27.9296 36.1598 30.7884 32.3861 34.7908L31.7 34.3334H31.5857C31.4713 34.3334 31.357 34.4478 31.1282 34.4478C30.8995 34.4478 30.6708 34.3334 30.4421 34.2191C29.4129 33.4186 28.3837 32.5038 27.5833 31.5889C27.4689 31.3602 27.2402 31.2459 27.1258 31.1315C26.7828 30.7884 26.5541 30.4454 26.211 30.1023C26.0966 29.988 25.9823 29.988 25.8679 29.8736C25.7536 29.7593 25.7536 29.7593 25.7536 29.7593C25.2962 29.4162 24.7244 29.1875 24.1526 29.1875C23.4665 29.1875 22.8947 29.4162 22.5517 29.988C21.8655 31.0171 22.0942 32.3894 23.0091 33.1899C23.1234 33.1899 23.1234 33.3042 23.1234 33.3042C23.1234 33.3042 23.3521 33.5329 23.4665 33.5329C23.8096 33.7617 24.267 33.9904 24.7244 34.2191C24.9531 34.3334 25.1818 34.4478 25.4105 34.5621C26.5541 35.2483 27.6976 35.9344 28.6124 36.8492C28.8412 37.0779 29.0699 37.5353 28.9555 37.8784V37.7641L29.6416 38.4502C29.5273 38.6789 29.4129 38.7932 29.2986 39.022C25.7536 44.6253 24.267 51.2579 25.2962 57.7761L24.3813 58.0048C24.3813 58.1191 24.267 58.1191 24.267 58.1191C24.1526 58.4622 23.8096 58.6909 23.4665 58.9196C22.2086 59.2627 20.9507 59.4914 19.5784 59.6058C19.3497 59.6058 19.121 59.6058 18.8923 59.7201C18.4349 59.7201 17.9775 59.8345 17.5201 59.8345C17.4057 59.8345 17.2914 59.9488 17.0627 59.9488C16.9483 59.9488 16.9483 59.9488 16.8339 60.0632C15.576 60.2919 14.7756 61.4354 15.0043 62.6933C15.233 63.7225 16.2622 64.4086 17.2914 64.2943C17.5201 64.2943 17.6344 64.2943 17.8631 64.1799C17.9775 64.1799 17.9775 64.1799 17.9775 64.0656C17.9775 63.9512 18.3206 64.0656 18.4349 64.0656C18.8923 63.9512 19.3497 63.7225 19.6928 63.6082C19.9215 63.4938 20.1502 63.3794 20.3789 63.3794H20.4933C21.7512 62.922 22.8947 62.579 24.267 62.3503H24.3813C24.7244 62.3503 25.0675 62.4646 25.2962 62.6933C25.4105 62.6933 25.4105 62.8077 25.4105 62.8077L26.4397 62.6933C28.155 67.9536 31.357 72.6422 35.8168 76.0728C36.846 76.8733 37.7608 77.5594 38.9043 78.1312L38.3326 78.9316C38.3326 79.046 38.4469 79.046 38.4469 79.046C38.6756 79.3891 38.6756 79.8465 38.5613 80.1895C38.1039 81.3331 37.4177 82.4766 36.7316 83.5058V83.6202C36.6173 83.8489 36.5029 83.9632 36.2742 84.1919C36.0455 84.4207 35.8168 84.8781 35.4737 85.3355C35.3594 85.4498 35.3594 85.5642 35.245 85.6786C35.245 85.6786 35.245 85.7929 35.1306 85.7929C34.5589 86.9365 35.0163 88.3087 36.0455 88.8805C36.2742 88.9948 36.6173 89.1092 36.846 89.1092C37.7608 89.1092 38.5613 88.5374 39.0187 87.7369C39.0187 87.7369 39.0187 87.6226 39.1331 87.6226C39.1331 87.5082 39.2474 87.3939 39.3618 87.2795C39.4761 86.8221 39.7048 86.479 39.8192 86.0216L40.0479 85.3355C40.391 84.0776 40.9627 82.9341 41.5345 81.7905C41.7632 81.4474 42.1063 81.2187 42.4493 81.1044C42.5637 81.1044 42.5637 81.1044 42.5637 80.99L43.0211 80.0752C46.223 81.3331 49.5393 81.9049 52.9699 81.9049C55.0283 81.9049 57.0867 81.6762 59.1451 81.1044C60.403 80.8757 61.6609 80.4183 62.8044 80.0752L63.2618 80.8757C63.3762 80.8757 63.3762 80.8757 63.3762 80.99C63.7192 81.1044 64.0623 81.3331 64.291 81.6762C64.8628 82.8197 65.4346 83.9632 65.7776 85.2211V85.3355L66.0063 86.0216C66.1207 86.479 66.2351 86.9365 66.4638 87.2795C66.5781 87.3939 66.5781 87.5082 66.6925 87.6226C66.6925 87.6226 66.6925 87.7369 66.8068 87.7369C67.2642 88.5374 68.0647 89.1092 68.9796 89.1092C69.3226 89.1092 69.5513 88.9948 69.8944 88.8805C70.3518 88.6518 70.8092 88.1944 70.9236 87.6226C71.0379 87.0508 71.0379 86.479 70.8092 85.9073C70.8092 85.7929 70.6949 85.7929 70.6949 85.7929C70.6949 85.6786 70.5805 85.5642 70.4662 85.4498C70.2375 84.9924 70.0087 84.6494 69.6657 84.3063C69.5513 84.0776 69.437 83.9632 69.2083 83.7345V83.5058C68.4078 82.4766 67.836 81.3331 67.3786 80.1895C67.2642 79.8465 67.2642 79.3891 67.493 79.046C67.493 78.9316 67.6073 78.9316 67.6073 78.9316L67.2642 78.0168C73.0963 74.4718 77.5561 68.9828 79.6145 62.4646L80.5294 62.579C80.6437 62.579 80.6437 62.4646 80.6437 62.4646C80.8724 62.2359 81.2155 62.1215 81.5585 62.1215H81.6729C82.9308 62.3503 84.1887 62.6933 85.3322 63.1507H85.4466C85.6753 63.2651 85.904 63.3794 86.1327 63.3794C86.5901 63.6082 86.9332 63.8369 87.3906 63.9512C87.505 63.9512 87.6193 64.0656 87.848 64.0656C87.9624 64.0656 87.9624 64.0656 88.0767 64.1799C88.3055 64.2943 88.4198 64.2943 88.6485 64.2943C89.6777 64.2943 90.5925 63.6082 90.9356 62.6933C90.8212 61.4354 89.9064 60.5206 88.8772 60.2919ZM55.8288 56.7469L52.7412 58.2335L49.6537 56.7469L48.8532 53.4306L51.0259 50.6861H54.4565L56.6293 53.4306L55.8288 56.7469ZM74.4686 49.3139C75.0403 51.7153 75.1547 54.1167 74.926 56.5182L64.0623 53.4306C63.0331 53.2019 62.4614 52.1727 62.6901 51.1435C62.8044 50.8005 62.9188 50.5718 63.1475 50.343L71.7241 42.5669C72.982 44.6253 73.8968 46.9124 74.4686 49.3139ZM68.2934 38.3358L58.9164 44.9684C58.1159 45.4258 56.9723 45.3115 56.4006 44.511C56.1719 44.2823 56.0575 44.0536 56.0575 43.7105L55.3714 32.1607C60.403 32.7325 64.8628 34.9052 68.2934 38.3358ZM47.5953 32.5038L49.8824 32.0463L49.3106 43.4818C49.3106 44.511 48.3958 45.3114 47.3666 45.3114C47.0235 45.3114 46.7948 45.1971 46.4517 45.0827L36.9603 38.3358C39.9335 35.477 43.5929 33.4186 47.5953 32.5038ZM33.644 42.5669L42.1063 50.1143C42.9067 50.8005 43.0211 51.944 42.335 52.7445C42.1063 53.0875 41.8776 53.2019 41.4201 53.3163L30.3278 56.5182C29.9847 51.7153 31.1282 46.7981 33.644 42.5669ZM31.7 61.8928L43.0211 59.9488C43.9359 59.9488 44.8508 60.5206 44.9651 61.4354C45.0795 61.7785 45.0795 62.2359 44.8508 62.579L40.5053 73.0996C36.5029 70.4694 33.301 66.467 31.7 61.8928ZM57.6585 76.0728C56.0575 76.4158 54.4565 76.6446 52.7412 76.6446C50.3398 76.6446 47.824 76.1871 45.5369 75.501L51.1403 65.3235C51.712 64.6373 52.6269 64.4086 53.4274 64.8661C53.7704 65.0948 53.9991 65.3235 54.3422 65.6665L59.8312 75.6154C59.1451 75.7297 58.4589 75.8441 57.6585 76.0728ZM71.6097 66.124C69.8944 68.8685 67.4929 71.2699 64.7484 72.9852L60.2886 62.2359C60.0599 61.3211 60.5173 60.4062 61.3178 60.0632C61.6609 59.9488 62.0039 59.8345 62.347 59.8345L73.7824 61.7785C73.2107 63.3794 72.5245 64.8661 71.6097 66.124Z" fill="white"/>
</svg>
